HIERARCHY
ROOT joint_Root
{
	OFFSET 0.0 0.0 0.0
	CHANNELS 6 Xposition Yposition Zposition Zrotation Xrotation Yrotation 
	JOINT Hips
	{
		OFFSET -17.1583 93.1646 452.98
		CHANNELS 6 Xposition Yposition Zposition Zrotation Xrotation Yrotation 
		JOINT Spine
		{
			OFFSET 15.7357 0.0 0.0
			CHANNELS 6 Xposition Yposition Zposition Zrotation Xrotation Yrotation 
			JOINT Chest
			{
				OFFSET 8.98455 -0.406207 0.0
				CHANNELS 6 Xposition Yposition Zposition Zrotation Xrotation Yrotation 
				JOINT Neck
				{
					OFFSET 16.3773 0.0 0.0
					CHANNELS 6 Xposition Yposition Zposition Zrotation Xrotation Yrotation 
					JOINT Head
					{
						OFFSET 6.45672 0.0 0.0
						CHANNELS 6 Xposition Yposition Zposition Zrotation Xrotation Yrotation 
						End Site
						{
							OFFSET 0.0 0.0 0.0
						}
					}
				}
				JOINT Shoulder_L
				{
					OFFSET 12.9942 -0.242716 4.98039
					CHANNELS 6 Xposition Yposition Zposition Zrotation Xrotation Yrotation 
					JOINT UpperArm_L
					{
						OFFSET 5.34809 0.0 0.0
						CHANNELS 6 Xposition Yposition Zposition Zrotation Xrotation Yrotation 
						JOINT LowerArm_L
						{
							OFFSET 24.3286 1.87007e-05 0.0
							CHANNELS 6 Xposition Yposition Zposition Zrotation Xrotation Yrotation 
							JOINT Hand_L
							{
								OFFSET 22.2916 0.0 0.0
								CHANNELS 6 Xposition Yposition Zposition Zrotation Xrotation Yrotation 
								End Site
								{
									OFFSET 0.0 0.0 0.0
								}
							}
						}
					}
				}
				JOINT Shoulder_R
				{
					OFFSET 12.9945 -0.242716 -4.98039
					CHANNELS 6 Xposition Yposition Zposition Zrotation Xrotation Yrotation 
					JOINT UpperArm_R
					{
						OFFSET -5.34813 0.0 0.0
						CHANNELS 6 Xposition Yposition Zposition Zrotation Xrotation Yrotation 
						JOINT LowerArm_R
						{
							OFFSET -24.3289 0.000322201 0.0
							CHANNELS 6 Xposition Yposition Zposition Zrotation Xrotation Yrotation 
							JOINT Hand_R
							{
								OFFSET -22.2915 -0.000108084 0.0
								CHANNELS 6 Xposition Yposition Zposition Zrotation Xrotation Yrotation 
								End Site
								{
									OFFSET 0.0 0.0 0.0
								}
							}
						}
					}
				}
			}
		}
		JOINT UpperLeg_L
		{
			OFFSET -2.19248 -6.46944 0.0
			CHANNELS 6 Xposition Yposition Zposition Zrotation Xrotation Yrotation 
			JOINT LowerLeg_L
			{
				OFFSET 39.0811 0.0 -1.23785e-05
				CHANNELS 6 Xposition Yposition Zposition Zrotation Xrotation Yrotation 
				JOINT Foot_L
				{
					OFFSET 40.9854 0.0 -1.26872e-05
					CHANNELS 6 Xposition Yposition Zposition Zrotation Xrotation Yrotation 
					JOINT Toes_L
					{
						OFFSET 11.7543 0.0 0.0
						CHANNELS 6 Xposition Yposition Zposition Zrotation Xrotation Yrotation 
						End Site
						{
							OFFSET 0.0 0.0 0.0
						}
					}
				}
			}
		}
		JOINT UpperLeg_R
		{
			OFFSET -2.19251 6.46944 0.0
			CHANNELS 6 Xposition Yposition Zposition Zrotation Xrotation Yrotation 
			JOINT LowerLeg_R
			{
				OFFSET -39.0811 -0.00228153 -0.0401928
				CHANNELS 6 Xposition Yposition Zposition Zrotation Xrotation Yrotation 
				JOINT Foot_R
				{
					OFFSET -40.9854 0.0 0.0
					CHANNELS 6 Xposition Yposition Zposition Zrotation Xrotation Yrotation 
					JOINT Toes_R
					{
						OFFSET -11.7543 0.0 0.0
						CHANNELS 6 Xposition Yposition Zposition Zrotation Xrotation Yrotation 
						End Site
						{
							OFFSET 0.0 0.0 0.0
						}
					}
				}
			}
		}
	}
}
MOTION
Frames:	6
Frame Time:	0.0333333
0.000000 0.000000 0.000000 0.000000 0.000000 -0.000000 1.331490 85.237000 -21.170300 86.196500 -1.693910 -4.533680 15.735700 0.000005 -0.000001 91.175800 84.505200 -88.379500 8.984550 -0.406207 -0.000000 3.224530 0.114598 5.583360 16.377300 -0.000001 -0.000001 -4.354630 2.310180 -0.934145 6.456720 -0.000001 -0.000000 -2.511470 2.170450 -4.700170 12.994200 -0.242716 4.980390 -92.442600 7.122410 -71.014400 5.348090 -0.000007 -0.000001 -65.030500 -14.813500 18.276700 24.328600 0.000019 0.000005 45.816900 22.110200 -69.907700 22.291600 -0.000001 0.000005 43.807900 4.129990 22.349900 12.994500 -0.242716 -4.980390 88.838600 4.167270 -74.411900 -5.348130 -0.000001 -0.000004 -66.586100 2.693980 0.281737 -24.328900 0.000322 -0.000009 7.286500 6.357090 -49.118500 -22.291500 -0.000108 -0.000004 47.818700 5.378240 -2.244600 -2.192480 -6.469440 -0.000000 -175.458000 -0.950507 -37.096100 39.081100 -0.000007 -0.000012 0.057951 0.001947 91.914900 40.985400 -0.000006 -0.000013 -5.174200 -1.142260 -45.986700 11.754300 -0.000000 0.000003 0.002152 0.053047 -14.425100 -2.192510 6.469440 -0.000001 -170.946000 6.047980 164.184000 -39.081100 -0.002282 -0.040193 0.001130 0.001900 48.189900 -40.985400 0.000008 0.000006 -1.390190 -0.766352 -89.715500 -11.754300 -0.000006 -0.000006 -0.000955 0.182438 -9.172770
0.000000 0.000000 0.000000 0.000000 0.000000 -0.000000 1.776540 87.829000 -12.256200 89.631700 -1.162600 -6.141720 15.735700 0.000005 -0.000001 103.911000 85.249500 -102.747000 8.984550 -0.406207 -0.000000 1.436120 2.218740 2.299110 16.377300 -0.000001 -0.000001 -3.737090 0.857659 0.114703 6.456720 -0.000001 -0.000000 -1.387900 -0.555565 -3.149340 12.994200 -0.242716 4.980390 -91.952500 5.575910 -70.665700 5.348090 -0.000007 -0.000001 -60.811100 -17.196100 21.897300 24.328600 0.000019 0.000005 45.611100 22.372600 -69.565000 22.291600 -0.000001 0.000005 43.108400 4.120520 22.489900 12.994500 -0.242716 -4.980390 89.077500 3.348310 -74.587500 -5.348130 -0.000001 -0.000004 -67.871200 3.191430 -0.438756 -24.328900 0.000322 -0.000009 7.336800 4.487890 -58.717400 -22.291500 -0.000108 -0.000004 48.666000 5.382810 -2.387250 -2.192480 -6.469440 -0.000000 -179.466000 2.325710 -41.348200 39.081100 -0.000007 -0.000012 -0.007611 0.001067 82.080500 40.985400 -0.000006 -0.000013 -5.265290 -3.876090 -52.124400 11.754300 -0.000000 0.000003 0.002386 0.066893 -13.863700 -2.192510 6.469440 -0.000001 -175.844000 6.851650 172.941000 -39.081100 -0.002282 -0.040193 -0.003477 0.008582 38.226600 -40.985400 0.000008 0.000006 -3.260000 0.513575 -82.767800 -11.754300 -0.000006 -0.000006 0.002092 0.050357 -14.530500
0.000000 0.000000 0.000000 0.000000 0.000000 -0.000000 2.379620 90.840900 -3.476910 93.168100 -1.394350 -8.941700 15.735700 0.000005 -0.000001 121.352000 85.977400 -121.981000 8.984550 -0.406207 -0.000000 -0.871927 4.232360 -1.223980 16.377300 -0.000001 -0.000001 -3.271570 -0.387270 0.956786 6.456720 -0.000001 -0.000000 -0.070197 -2.883730 -1.781640 12.994200 -0.242716 4.980390 -91.387500 3.909720 -70.443100 5.348090 -0.000007 -0.000001 -56.599600 -19.887400 25.003700 24.328600 0.000019 0.000005 43.768400 21.432800 -69.119800 22.291600 -0.000001 0.000005 43.086500 4.083260 23.031700 12.994500 -0.242716 -4.980390 89.524700 1.790020 -75.129900 -5.348130 -0.000001 -0.000004 -70.035300 3.632780 -0.389090 -24.328900 0.000322 -0.000009 8.074760 3.632470 -65.934900 -22.291500 -0.000108 -0.000004 48.009300 5.403860 -3.064580 -2.192480 -6.469440 -0.000000 177.104000 5.343350 -43.555400 39.081100 -0.000007 -0.000012 -0.015531 0.006653 66.829500 40.985400 -0.000006 -0.000013 -5.118790 -8.137260 -57.339600 11.754300 -0.000000 0.000003 0.002328 0.062577 -14.038600 -2.192510 6.469440 -0.000001 179.777000 6.315200 178.574000 -39.081100 -0.002282 -0.040193 0.009139 -0.010627 28.767400 -40.985400 0.000008 0.000006 -3.166000 -1.227490 -68.775400 -11.754300 -0.000006 -0.000006 -0.020839 -0.171894 -23.597600
0.000000 0.000000 0.000000 0.000000 0.000000 -0.000000 2.530420 93.266300 5.333580 94.158900 -0.996405 -10.953900 15.735700 0.000005 -0.000001 135.180000 86.338300 -136.493000 8.984550 -0.406207 -0.000000 -2.546190 5.311000 -2.509500 16.377300 -0.000001 -0.000001 -2.981220 -1.060920 1.050900 6.456720 -0.000001 -0.000000 0.851732 -4.585260 -1.131180 12.994200 -0.242716 4.980390 -91.034500 2.829800 -69.908900 5.348090 -0.000007 -0.000001 -53.153200 -21.317600 27.376700 24.328600 0.000019 0.000005 45.107500 21.674100 -69.799200 22.291600 -0.000001 0.000005 43.317200 4.049240 23.522100 12.994500 -0.242716 -4.980390 89.829900 0.662749 -75.609600 -5.348130 -0.000001 -0.000004 -70.309000 5.677400 -0.583346 -24.328900 0.000322 -0.000009 9.927050 3.553010 -70.497800 -22.291500 -0.000108 -0.000004 47.616900 5.430250 -3.948120 -2.192480 -6.469440 -0.000000 177.628000 8.462130 -42.591200 39.081100 -0.000007 -0.000012 -0.001682 0.001500 48.342300 40.985400 -0.000006 -0.000013 -3.600720 -7.064970 -60.928600 11.754300 -0.000000 0.000003 0.002367 0.065371 -13.925400 -2.192510 6.469440 -0.000001 178.806000 6.705590 -177.608000 -39.081100 -0.002282 -0.040193 0.014985 -0.028704 22.120400 -40.985400 0.000008 0.000006 0.537666 -3.228520 -51.274900 -11.754300 -0.000006 -0.000006 -0.040516 -0.262159 -27.343500
0.000000 0.000000 0.000000 0.000000 0.000000 -0.000000 2.095770 94.327900 14.623300 92.172500 0.480888 -9.819260 15.735700 0.000005 -0.000001 135.138000 86.097700 -135.754000 8.984550 -0.406207 -0.000000 -2.234310 5.584070 -1.125030 16.377300 -0.000001 -0.000001 -2.858400 -1.554030 0.836660 6.456720 -0.000001 -0.000000 1.067880 -5.618610 -1.497240 12.994200 -0.242716 4.980390 -91.069700 2.854440 -69.447600 5.348090 -0.000007 -0.000001 -50.721500 -21.352300 28.874000 24.328600 0.000019 0.000005 45.226300 21.225500 -70.242200 22.291600 -0.000001 0.000005 42.784200 4.073740 23.169600 12.994500 -0.242716 -4.980390 89.911700 0.350732 -75.864100 -5.348130 -0.000001 -0.000004 -69.526600 6.695260 -0.476398 -24.328900 0.000322 -0.000009 12.799900 4.095340 -72.552000 -22.291500 -0.000108 -0.000004 46.996100 5.441130 -4.325580 -2.192480 -6.469440 -0.000000 -178.554000 10.698000 -37.379300 39.081100 -0.000007 -0.000012 0.000266 -0.000450 30.504100 40.985400 -0.000006 -0.000013 -4.627260 0.606416 -65.510900 11.754300 -0.000000 0.000003 0.002385 0.066851 -13.865400 -2.192510 6.469440 -0.000001 -179.420000 8.609210 -174.282000 -39.081100 -0.002282 -0.040193 0.039230 -0.086101 22.641300 -40.985400 0.000008 0.000006 -0.672878 -5.374790 -37.127200 -11.754300 -0.000006 -0.000006 0.000840 0.015599 -15.940500
0.000000 0.000000 0.000000 0.000000 0.000000 -0.000000 1.641900 94.144700 24.074000 89.849100 1.342500 -7.475000 15.735700 0.000005 -0.000001 130.378000 85.510400 -130.135000 8.984550 -0.406207 -0.000000 -0.937939 5.797290 0.532384 16.377300 -0.000001 -0.000001 -3.178860 -1.829160 1.028610 6.456720 -0.000001 -0.000000 0.870242 -5.981740 -1.929510 12.994200 -0.242716 4.980390 -91.197900 3.194920 -69.434900 5.348090 -0.000007 -0.000001 -50.389400 -21.225400 29.331200 24.328600 0.000019 0.000005 44.706300 20.628800 -70.407200 22.291600 -0.000001 0.000005 42.341300 4.093910 22.876900 12.994500 -0.242716 -4.980390 89.955900 0.177563 -76.069900 -5.348130 -0.000001 -0.000004 -69.788900 6.439710 0.241103 -24.328900 0.000322 -0.000009 12.029200 4.190270 -71.072200 -22.291500 -0.000108 -0.000004 46.697300 5.433840 -4.068480 -2.192480 -6.469440 -0.000000 -175.488000 11.096300 -31.164300 39.081100 -0.000007 -0.000012 -0.014517 0.047374 17.036100 40.985400 -0.000006 -0.000013 -9.027970 8.319060 -69.703000 11.754300 -0.000000 0.000003 0.002383 0.066631 -13.874300 -2.192510 6.469440 -0.000001 -177.214000 8.502770 -172.657000 -39.081100 -0.002282 -0.040193 0.089056 -0.155161 28.927800 -40.985400 0.000008 0.000006 -2.654800 -7.238570 -27.626500 -11.754300 -0.000006 -0.000006 -0.000482 0.175415 -9.458160
